<svg width="225" height="60" viewBox="0 0 225 60" fill="none" xmlns="http://www.w3.org/2000/svg">
<rect width="60" height="60" rx="5" fill="#E9ECF2"/>
<path d="M29.8 13.2C23.2952 13.2 17.3936 16.9516 14.6188 22.8H12.2001C11.9235 22.8 11.6657 22.9438 11.5204 23.1797C11.3751 23.4156 11.361 23.7094 11.4844 23.9578L14.6844 30.3578C14.8204 30.6281 15.0969 30.8 15.4001 30.8C15.7032 30.8 15.9798 30.6281 16.1157 30.3578L19.3157 23.9578C19.4392 23.7094 19.4267 23.4156 19.2798 23.1797C19.1345 22.9438 18.8767 22.8 18.6001 22.8H16.4142C19.0485 17.9032 24.1734 14.8 29.8002 14.8C38.1814 14.8 45.0002 21.6188 45.0002 30C45.0002 38.3812 38.1814 45.2 29.8002 45.2C23.5754 45.2 18.0422 41.4688 15.7066 35.6936C15.541 35.2842 15.0769 35.0874 14.6644 35.2514C14.255 35.417 14.0566 35.8826 14.2222 36.2936C16.805 42.6764 22.919 46.8 29.8002 46.8C39.0642 46.8 46.6002 39.264 46.6002 30C46.6002 20.736 39.0642 13.2 29.8002 13.2H29.8ZM15.4 28.2108L13.4938 24.3999H17.3047L15.4 28.2108ZM33 31.5999C33 32.9233 31.9235 33.9999 30.6 33.9999V35.1999C30.6 35.6421 30.2422 35.9999 29.8 35.9999C29.3578 35.9999 29 35.6421 29 35.1999V33.9999H27.8C27.3578 33.9999 27 33.6421 27 33.1999C27 32.7577 27.3578 32.3999 27.8 32.3999H30.6C31.0407 32.3999 31.4 32.0405 31.4 31.5999C31.4 31.1593 31.0406 30.7999 30.6 30.7999H29C27.6766 30.7999 26.6 29.7233 26.6 28.3999C26.6 27.0764 27.6766 25.9999 29 25.9999V24.7999C29 24.3577 29.3578 23.9999 29.8 23.9999C30.2422 23.9999 30.6 24.3577 30.6 24.7999V25.9999H31.8C32.2422 25.9999 32.6 26.3577 32.6 26.7999C32.6 27.2421 32.2422 27.5999 31.8 27.5999H29C28.5594 27.5999 28.2 27.9593 28.2 28.3999C28.2 28.8405 28.5594 29.1999 29 29.1999H30.6C31.9235 29.1999 33 30.2764 33 31.5999ZM29.8 39.1999C24.7264 39.1999 20.6 35.0735 20.6 29.9999C20.6 24.9263 24.7264 20.7999 29.8 20.7999C34.8736 20.7999 39 24.9263 39 29.9999C39 35.0735 34.8736 39.1999 29.8 39.1999ZM29.8 22.3999C25.6092 22.3999 22.2 25.8093 22.2 29.9999C22.2 34.1905 25.6094 37.5999 29.8 37.5999C33.9907 37.5999 37.4 34.1905 37.4 29.9999C37.4 25.8093 33.9907 22.3999 29.8 22.3999Z" fill="black"/>
<path d="M79.26 24V11.04H84.615C84.741 11.04 84.903 11.046 85.101 11.058C85.299 11.064 85.482 11.082 85.65 11.112C86.4 11.226 87.018 11.475 87.504 11.859C87.996 12.243 88.359 12.729 88.593 13.317C88.833 13.899 88.953 14.547 88.953 15.261C88.953 16.317 88.686 17.226 88.152 17.988C87.618 18.744 86.799 19.212 85.695 19.392L84.768 19.473H81.429V24H79.26ZM86.703 24L84.147 18.726L86.352 18.24L89.16 24H86.703ZM81.429 17.448H84.525C84.645 17.448 84.78 17.442 84.93 17.43C85.08 17.418 85.218 17.394 85.344 17.358C85.704 17.268 85.986 17.109 86.19 16.881C86.4 16.653 86.547 16.395 86.631 16.107C86.721 15.819 86.766 15.537 86.766 15.261C86.766 14.985 86.721 14.703 86.631 14.415C86.547 14.121 86.4 13.86 86.19 13.632C85.986 13.404 85.704 13.245 85.344 13.155C85.218 13.119 85.08 13.098 84.93 13.092C84.78 13.08 84.645 13.074 84.525 13.074H81.429V17.448ZM95.2018 24.27C94.2178 24.27 93.3538 24.057 92.6098 23.631C91.8658 23.205 91.2838 22.614 90.8638 21.858C90.4498 21.102 90.2428 20.232 90.2428 19.248C90.2428 18.186 90.4468 17.265 90.8548 16.485C91.2628 15.699 91.8298 15.09 92.5558 14.658C93.2818 14.226 94.1218 14.01 95.0758 14.01C96.0838 14.01 96.9388 14.247 97.6408 14.721C98.3488 15.189 98.8738 15.852 99.2158 16.71C99.5578 17.568 99.6868 18.579 99.6028 19.743H97.4518V18.951C97.4458 17.895 97.2598 17.124 96.8938 16.638C96.5278 16.152 95.9518 15.909 95.1658 15.909C94.2778 15.909 93.6178 16.185 93.1858 16.737C92.7538 17.283 92.5378 18.084 92.5378 19.14C92.5378 20.124 92.7538 20.886 93.1858 21.426C93.6178 21.966 94.2478 22.236 95.0758 22.236C95.6098 22.236 96.0688 22.119 96.4528 21.885C96.8428 21.645 97.1428 21.3 97.3528 20.85L99.4948 21.498C99.1228 22.374 98.5468 23.055 97.7668 23.541C96.9928 24.027 96.1378 24.27 95.2018 24.27ZM91.8538 19.743V18.105H98.5408V19.743H91.8538ZM112.66 24V18.096C112.66 17.43 112.495 16.911 112.165 16.539C111.835 16.161 111.388 15.972 110.824 15.972C110.476 15.972 110.164 16.053 109.888 16.215C109.612 16.371 109.393 16.605 109.231 16.917C109.069 17.223 108.988 17.589 108.988 18.015L108.025 17.448C108.019 16.776 108.169 16.185 108.475 15.675C108.787 15.159 109.207 14.757 109.735 14.469C110.263 14.181 110.851 14.037 111.499 14.037C112.573 14.037 113.395 14.361 113.965 15.009C114.541 15.651 114.829 16.497 114.829 17.547V24H112.66ZM100.969 24V14.28H102.886V17.295H103.156V24H100.969ZM106.828 24V18.123C106.828 17.445 106.663 16.917 106.333 16.539C106.003 16.161 105.553 15.972 104.983 15.972C104.431 15.972 103.987 16.161 103.651 16.539C103.321 16.917 103.156 17.409 103.156 18.015L102.184 17.367C102.184 16.737 102.34 16.17 102.652 15.666C102.964 15.162 103.384 14.766 103.912 14.478C104.446 14.184 105.043 14.037 105.703 14.037C106.429 14.037 107.035 14.193 107.521 14.505C108.013 14.811 108.379 15.231 108.619 15.765C108.865 16.293 108.988 16.89 108.988 17.556V24H106.828ZM120.952 24.27C119.98 24.27 119.131 24.051 118.405 23.613C117.679 23.175 117.115 22.572 116.713 21.804C116.317 21.03 116.119 20.142 116.119 19.14C116.119 18.12 116.323 17.226 116.731 16.458C117.139 15.69 117.706 15.09 118.432 14.658C119.158 14.226 119.998 14.01 120.952 14.01C121.93 14.01 122.782 14.229 123.508 14.667C124.234 15.105 124.798 15.711 125.2 16.485C125.602 17.253 125.803 18.138 125.803 19.14C125.803 20.148 125.599 21.039 125.191 21.813C124.789 22.581 124.225 23.184 123.499 23.622C122.773 24.054 121.924 24.27 120.952 24.27ZM120.952 22.236C121.816 22.236 122.458 21.948 122.878 21.372C123.298 20.796 123.508 20.052 123.508 19.14C123.508 18.198 123.295 17.448 122.869 16.89C122.443 16.326 121.804 16.044 120.952 16.044C120.37 16.044 119.89 16.176 119.512 16.44C119.14 16.698 118.864 17.061 118.684 17.529C118.504 17.991 118.414 18.528 118.414 19.14C118.414 20.082 118.627 20.835 119.053 21.399C119.485 21.957 120.118 22.236 120.952 22.236ZM129.702 24L126.174 14.28H128.343L130.791 21.327L133.23 14.28H135.408L131.88 24H129.702ZM140.731 24.27C139.747 24.27 138.883 24.057 138.139 23.631C137.395 23.205 136.813 22.614 136.393 21.858C135.979 21.102 135.772 20.232 135.772 19.248C135.772 18.186 135.976 17.265 136.384 16.485C136.792 15.699 137.359 15.09 138.085 14.658C138.811 14.226 139.651 14.01 140.605 14.01C141.613 14.01 142.468 14.247 143.17 14.721C143.878 15.189 144.403 15.852 144.745 16.71C145.087 17.568 145.216 18.579 145.132 19.743H142.981V18.951C142.975 17.895 142.789 17.124 142.423 16.638C142.057 16.152 141.481 15.909 140.695 15.909C139.807 15.909 139.147 16.185 138.715 16.737C138.283 17.283 138.067 18.084 138.067 19.14C138.067 20.124 138.283 20.886 138.715 21.426C139.147 21.966 139.777 22.236 140.605 22.236C141.139 22.236 141.598 22.119 141.982 21.885C142.372 21.645 142.672 21.3 142.882 20.85L145.024 21.498C144.652 22.374 144.076 23.055 143.296 23.541C142.522 24.027 141.667 24.27 140.731 24.27ZM137.383 19.743V18.105H144.07V19.743H137.383ZM150.677 24.27C149.783 24.27 149.003 24.045 148.337 23.595C147.671 23.145 147.155 22.533 146.789 21.759C146.423 20.985 146.24 20.112 146.24 19.14C146.24 18.156 146.423 17.28 146.789 16.512C147.161 15.738 147.686 15.129 148.364 14.685C149.042 14.235 149.84 14.01 150.758 14.01C151.682 14.01 152.456 14.235 153.08 14.685C153.71 15.129 154.187 15.738 154.511 16.512C154.835 17.286 154.997 18.162 154.997 19.14C154.997 20.106 154.835 20.979 154.511 21.759C154.187 22.533 153.704 23.145 153.062 23.595C152.42 24.045 151.625 24.27 150.677 24.27ZM151.01 22.326C151.592 22.326 152.06 22.194 152.414 21.93C152.774 21.66 153.035 21.285 153.197 20.805C153.365 20.325 153.449 19.77 153.449 19.14C153.449 18.504 153.365 17.949 153.197 17.475C153.035 16.995 152.78 16.623 152.432 16.359C152.084 16.089 151.634 15.954 151.082 15.954C150.5 15.954 150.02 16.098 149.642 16.386C149.264 16.668 148.985 17.052 148.805 17.538C148.625 18.018 148.535 18.552 148.535 19.14C148.535 19.734 148.622 20.274 148.796 20.76C148.976 21.24 149.249 21.621 149.615 21.903C149.981 22.185 150.446 22.326 151.01 22.326ZM153.449 24V17.178H153.179V11.04H155.366V24H153.449ZM79.26 50V37.04H87.63V39.074H81.429V42.269H86.55V44.303H81.429V47.966H87.63V50H79.26ZM96.1523 50V45.32C96.1523 45.014 96.1313 44.675 96.0893 44.303C96.0473 43.931 95.9483 43.574 95.7923 43.232C95.6423 42.884 95.4143 42.599 95.1083 42.377C94.8083 42.155 94.4003 42.044 93.8843 42.044C93.6083 42.044 93.3353 42.089 93.0653 42.179C92.7953 42.269 92.5493 42.425 92.3273 42.647C92.1113 42.863 91.9373 43.163 91.8053 43.547C91.6733 43.925 91.6073 44.411 91.6073 45.005L90.3203 44.456C90.3203 43.628 90.4793 42.878 90.7973 42.206C91.1213 41.534 91.5953 41 92.2193 40.604C92.8433 40.202 93.6113 40.001 94.5233 40.001C95.2433 40.001 95.8373 40.121 96.3053 40.361C96.7733 40.601 97.1453 40.907 97.4213 41.279C97.6973 41.651 97.9013 42.047 98.0333 42.467C98.1653 42.887 98.2493 43.286 98.2853 43.664C98.3273 44.036 98.3483 44.339 98.3483 44.573V50H96.1523ZM89.4113 50V40.28H91.3463V43.295H91.6073V50H89.4113ZM98.8969 54.32V52.286H99.3559C99.8839 52.286 100.259 52.163 100.481 51.917C100.703 51.671 100.814 51.308 100.814 50.828V40.28H102.974V51.8C102.974 52.586 102.743 53.201 102.281 53.645C101.825 54.095 101.189 54.32 100.373 54.32H98.8969ZM100.814 38.804V36.815H102.974V38.804H100.814ZM109.455 50.27C108.483 50.27 107.634 50.051 106.908 49.613C106.182 49.175 105.618 48.572 105.216 47.804C104.82 47.03 104.622 46.142 104.622 45.14C104.622 44.12 104.826 43.226 105.234 42.458C105.642 41.69 106.209 41.09 106.935 40.658C107.661 40.226 108.501 40.01 109.455 40.01C110.433 40.01 111.285 40.229 112.011 40.667C112.737 41.105 113.301 41.711 113.703 42.485C114.105 43.253 114.306 44.138 114.306 45.14C114.306 46.148 114.102 47.039 113.694 47.813C113.292 48.581 112.728 49.184 112.002 49.622C111.276 50.054 110.427 50.27 109.455 50.27ZM109.455 48.236C110.319 48.236 110.961 47.948 111.381 47.372C111.801 46.796 112.011 46.052 112.011 45.14C112.011 44.198 111.798 43.448 111.372 42.89C110.946 42.326 110.307 42.044 109.455 42.044C108.873 42.044 108.393 42.176 108.015 42.44C107.643 42.698 107.367 43.061 107.187 43.529C107.007 43.991 106.917 44.528 106.917 45.14C106.917 46.082 107.13 46.835 107.556 47.399C107.988 47.957 108.621 48.236 109.455 48.236ZM116.856 54.32L118.728 49.181L118.764 50.693L114.525 40.28H116.784L119.79 47.984H119.214L122.139 40.28H124.308L118.89 54.32H116.856ZM129.358 50.27C128.374 50.27 127.51 50.057 126.766 49.631C126.022 49.205 125.44 48.614 125.02 47.858C124.606 47.102 124.399 46.232 124.399 45.248C124.399 44.186 124.603 43.265 125.011 42.485C125.419 41.699 125.986 41.09 126.712 40.658C127.438 40.226 128.278 40.01 129.232 40.01C130.24 40.01 131.095 40.247 131.797 40.721C132.505 41.189 133.03 41.852 133.372 42.71C133.714 43.568 133.843 44.579 133.759 45.743H131.608V44.951C131.602 43.895 131.416 43.124 131.05 42.638C130.684 42.152 130.108 41.909 129.322 41.909C128.434 41.909 127.774 42.185 127.342 42.737C126.91 43.283 126.694 44.084 126.694 45.14C126.694 46.124 126.91 46.886 127.342 47.426C127.774 47.966 128.404 48.236 129.232 48.236C129.766 48.236 130.225 48.119 130.609 47.885C130.999 47.645 131.299 47.3 131.509 46.85L133.651 47.498C133.279 48.374 132.703 49.055 131.923 49.541C131.149 50.027 130.294 50.27 129.358 50.27ZM126.01 45.743V44.105H132.697V45.743H126.01ZM139.304 50.27C138.41 50.27 137.63 50.045 136.964 49.595C136.298 49.145 135.782 48.533 135.416 47.759C135.05 46.985 134.867 46.112 134.867 45.14C134.867 44.156 135.05 43.28 135.416 42.512C135.788 41.738 136.313 41.129 136.991 40.685C137.669 40.235 138.467 40.01 139.385 40.01C140.309 40.01 141.083 40.235 141.707 40.685C142.337 41.129 142.814 41.738 143.138 42.512C143.462 43.286 143.624 44.162 143.624 45.14C143.624 46.106 143.462 46.979 143.138 47.759C142.814 48.533 142.331 49.145 141.689 49.595C141.047 50.045 140.252 50.27 139.304 50.27ZM139.637 48.326C140.219 48.326 140.687 48.194 141.041 47.93C141.401 47.66 141.662 47.285 141.824 46.805C141.992 46.325 142.076 45.77 142.076 45.14C142.076 44.504 141.992 43.949 141.824 43.475C141.662 42.995 141.407 42.623 141.059 42.359C140.711 42.089 140.261 41.954 139.709 41.954C139.127 41.954 138.647 42.098 138.269 42.386C137.891 42.668 137.612 43.052 137.432 43.538C137.252 44.018 137.162 44.552 137.162 45.14C137.162 45.734 137.249 46.274 137.423 46.76C137.603 47.24 137.876 47.621 138.242 47.903C138.608 48.185 139.073 48.326 139.637 48.326ZM142.076 50V43.178H141.806V37.04H143.993V50H142.076ZM149.4 50V37.04H157.77V39.074H151.569V42.269H156.69V44.303H151.569V47.966H157.77V50H149.4ZM158.489 50L162.044 45.086L158.561 40.28H161.117L163.304 43.385L165.455 40.28H168.011L164.528 45.086L168.101 50H165.545L163.304 46.787L161.045 50H158.489ZM173.847 50.27C172.899 50.27 172.104 50.045 171.462 49.595C170.82 49.145 170.337 48.533 170.013 47.759C169.689 46.979 169.527 46.106 169.527 45.14C169.527 44.162 169.689 43.286 170.013 42.512C170.337 41.738 170.811 41.129 171.435 40.685C172.065 40.235 172.842 40.01 173.766 40.01C174.684 40.01 175.479 40.235 176.151 40.685C176.829 41.129 177.354 41.738 177.726 42.512C178.098 43.28 178.284 44.156 178.284 45.14C178.284 46.112 178.101 46.985 177.735 47.759C177.369 48.533 176.853 49.145 176.187 49.595C175.521 50.045 174.741 50.27 173.847 50.27ZM169.158 54.32V40.28H171.075V47.102H171.345V54.32H169.158ZM173.514 48.326C174.078 48.326 174.543 48.185 174.909 47.903C175.275 47.621 175.545 47.24 175.719 46.76C175.899 46.274 175.989 45.734 175.989 45.14C175.989 44.552 175.899 44.018 175.719 43.538C175.539 43.052 175.26 42.668 174.882 42.386C174.504 42.098 174.024 41.954 173.442 41.954C172.89 41.954 172.44 42.089 172.092 42.359C171.744 42.623 171.486 42.995 171.318 43.475C171.156 43.949 171.075 44.504 171.075 45.14C171.075 45.77 171.156 46.325 171.318 46.805C171.486 47.285 171.747 47.66 172.101 47.93C172.461 48.194 172.932 48.326 173.514 48.326ZM180.087 50V36.77H182.256V50H180.087ZM187.31 50.27C186.608 50.27 186.014 50.138 185.528 49.874C185.042 49.604 184.673 49.247 184.421 48.803C184.175 48.359 184.052 47.87 184.052 47.336C184.052 46.868 184.13 46.448 184.286 46.076C184.442 45.698 184.682 45.374 185.006 45.104C185.33 44.828 185.75 44.603 186.266 44.429C186.656 44.303 187.112 44.189 187.634 44.087C188.162 43.985 188.732 43.892 189.344 43.808C189.962 43.718 190.607 43.622 191.279 43.52L190.505 43.961C190.511 43.289 190.361 42.794 190.055 42.476C189.749 42.158 189.233 41.999 188.507 41.999C188.069 41.999 187.646 42.101 187.238 42.305C186.83 42.509 186.545 42.86 186.383 43.358L184.403 42.737C184.643 41.915 185.099 41.255 185.771 40.757C186.449 40.259 187.361 40.01 188.507 40.01C189.371 40.01 190.13 40.151 190.784 40.433C191.444 40.715 191.933 41.177 192.251 41.819C192.425 42.161 192.53 42.512 192.566 42.872C192.602 43.226 192.62 43.613 192.62 44.033V50H190.721V47.894L191.036 48.236C190.598 48.938 190.085 49.454 189.497 49.784C188.915 50.108 188.186 50.27 187.31 50.27ZM187.742 48.542C188.234 48.542 188.654 48.455 189.002 48.281C189.35 48.107 189.626 47.894 189.83 47.642C190.04 47.39 190.181 47.153 190.253 46.931C190.367 46.655 190.43 46.34 190.442 45.986C190.46 45.626 190.469 45.335 190.469 45.113L191.135 45.311C190.481 45.413 189.92 45.503 189.452 45.581C188.984 45.659 188.582 45.734 188.246 45.806C187.91 45.872 187.613 45.947 187.355 46.031C187.103 46.121 186.89 46.226 186.716 46.346C186.542 46.466 186.407 46.604 186.311 46.76C186.221 46.916 186.176 47.099 186.176 47.309C186.176 47.549 186.236 47.762 186.356 47.948C186.476 48.128 186.65 48.272 186.878 48.38C187.112 48.488 187.4 48.542 187.742 48.542ZM194.783 38.804V36.815H196.952V38.804H194.783ZM194.783 50V40.28H196.952V50H194.783ZM206.011 50V45.32C206.011 45.014 205.99 44.675 205.948 44.303C205.906 43.931 205.807 43.574 205.651 43.232C205.501 42.884 205.273 42.599 204.967 42.377C204.667 42.155 204.259 42.044 203.743 42.044C203.467 42.044 203.194 42.089 202.924 42.179C202.654 42.269 202.408 42.425 202.186 42.647C201.97 42.863 201.796 43.163 201.664 43.547C201.532 43.925 201.466 44.411 201.466 45.005L200.179 44.456C200.179 43.628 200.338 42.878 200.656 42.206C200.98 41.534 201.454 41 202.078 40.604C202.702 40.202 203.47 40.001 204.382 40.001C205.102 40.001 205.696 40.121 206.164 40.361C206.632 40.601 207.004 40.907 207.28 41.279C207.556 41.651 207.76 42.047 207.892 42.467C208.024 42.887 208.108 43.286 208.144 43.664C208.186 44.036 208.207 44.339 208.207 44.573V50H206.011ZM199.27 50V40.28H201.205V43.295H201.466V50H199.27Z" fill="#64607D"/>
</svg>
