<svg width="884" height="29" viewBox="0 0 884 29" fill="none" xmlns="http://www.w3.org/2000/svg">
<path d="M59.2079 16.8482H68.2703L63.4784 9.13874L54.6836 23.0778H50.6809L61.3784 6.33402C61.8435 5.6575 62.6186 5.24878 63.4784 5.24878C64.3099 5.24878 65.0851 5.64341 65.5361 6.30583L76.2758 23.0778H72.2731L70.3845 19.963H61.2092L59.2079 16.8482ZM100.785 19.963V5.41791H97.3888V21.3865C97.3888 21.8234 97.5579 22.2462 97.8821 22.5704C98.2062 22.8946 98.6431 23.0778 99.1223 23.0778H114.612L116.613 19.963H100.785ZM44.5923 17.3556C47.8904 17.3556 50.5682 14.6918 50.5682 11.3938C50.5682 8.09579 47.8904 5.41791 44.5923 5.41791H29.7329V23.0778H33.1282V8.5327H44.3668C45.9454 8.5327 47.2138 9.81525 47.2138 11.3938C47.2138 12.9723 45.9454 14.2549 44.3668 14.2549L34.7913 14.2408L44.9305 23.0778H49.8635L43.042 17.3556H44.5923ZM8.83143 23.0778C3.95624 23.0778 0 19.1314 0 14.2549C0 9.37834 3.95624 5.41791 8.83143 5.41791H19.0961C23.9726 5.41791 27.926 9.37834 27.926 14.2549C27.926 19.1314 23.9726 23.0778 19.0961 23.0778H8.83143ZM18.8678 19.963C22.0263 19.963 24.5844 17.412 24.5844 14.2549C24.5844 11.0978 22.0263 8.5327 18.8678 8.5327H9.0583C5.90122 8.5327 3.34168 11.0978 3.34168 14.2549C3.34168 17.412 5.90122 19.963 9.0583 19.963H18.8678ZM83.3651 23.0778C78.4885 23.0778 74.5282 19.1314 74.5282 14.2549C74.5282 9.37834 78.4885 5.41791 83.3651 5.41791H95.5565L93.5692 8.5327H83.5906C80.4335 8.5327 77.8685 11.0978 77.8685 14.2549C77.8685 17.412 80.4335 19.963 83.5906 19.963H95.8383L93.837 23.0778H83.3651ZM124.9 19.963C122.293 19.963 120.08 18.2153 119.404 15.8052H133.921L135.922 12.6904H119.404C120.08 10.2945 122.293 8.5327 124.9 8.5327H134.865L136.88 5.41791H124.675C119.798 5.41791 115.838 9.37834 115.838 14.2549C115.838 19.1314 119.798 23.0778 124.675 23.0778H135.147L137.148 19.963H124.9Z" fill="#EA1B22"/>
<path d="M322.681 9.84768C323.756 10.7176 322.618 12.0936 321.669 11.3977C320.498 10.6544 317.841 10.3064 317.509 11.9512C317.082 14.5451 323.962 13.0584 323.851 17.2655C323.741 21.2829 317.92 21.3778 315.738 19.5747C315.216 19.1478 315.231 18.4518 315.516 18.0247C315.927 17.6136 316.386 17.4712 316.924 17.914C318.221 18.7997 321.558 19.464 321.795 17.2181C321.59 14.8772 315.01 16.2849 315.5 11.7931C315.864 8.72474 320.498 8.17111 322.681 9.84768ZM312.305 10.4645V16.19C312.305 22.1053 302.768 22.1053 302.768 16.19V10.4645C302.768 9.04112 304.84 8.9778 304.84 10.4645V16.19C304.84 19.3058 310.233 19.4957 310.233 16.19V10.4645C310.233 9.05683 312.305 8.94613 312.305 10.4645ZM246.997 9.02529C249.765 9.16753 252.659 11.0813 252.659 14.8299C252.659 18.5783 249.765 20.5238 246.997 20.5238C244.071 20.6503 241.034 18.7048 241.034 14.8299C241.034 10.939 244.071 9.02529 246.997 9.02529ZM260.932 9.42059C264.949 9.42059 265.772 14.7982 262.419 16.1425L264.522 18.7048C265.345 19.9228 263.7 21.0931 262.751 19.8911L260.362 16.4748H257.879V19.3375C257.879 20.7135 255.776 20.761 255.776 19.3691V10.3855C255.776 9.83184 256.203 9.42059 256.725 9.42059H260.932ZM228.159 9.27835C228.618 9.27835 228.887 9.54724 229.156 9.84768L232.635 14.5451L236.242 9.67365C236.764 9.0253 238.045 9.27835 238.045 10.3696V19.2743C238.045 19.9701 237.602 20.3656 237.096 20.3656C236.526 20.3656 236.083 19.9701 236.083 19.2743V13.4222L233.458 16.7437C232.888 17.4395 232.177 17.4395 231.655 16.7437L229.298 13.4222V19.2743C229.298 19.9701 228.729 20.3656 228.159 20.3656C227.653 20.3656 227.21 19.9701 227.21 19.2743V10.3696C227.21 9.54725 227.906 9.27835 228.159 9.27835ZM272.399 9.27835C274.455 9.27835 276.306 10.6544 276.306 13.2957C276.306 15.7946 274.455 17.1865 272.399 17.1865H269.758V19.2743C269.758 19.9701 269.315 20.3656 268.745 20.3656C268.224 20.3656 267.67 19.9701 267.67 19.2743V10.3696C267.67 9.84768 268.081 9.27835 268.745 9.27835H272.399ZM287.504 9.42058C288.058 9.42058 288.485 9.83184 288.485 10.4013V19.385C288.485 19.9385 288.058 20.3656 287.504 20.3656C286.935 20.3656 286.429 19.9385 286.429 19.385V15.9212H281.273V19.385C281.273 19.9385 280.861 20.3656 280.308 20.3656C279.596 20.3656 279.185 19.9385 279.185 19.385V10.4013C279.185 9.83185 279.596 9.42058 280.308 9.42058C280.861 9.42058 281.273 9.83184 281.273 10.4013V13.8493H286.429V10.4013C286.429 9.83185 286.935 9.42058 287.504 9.42058ZM298.513 9.42058C299.968 9.42058 299.936 11.4767 298.513 11.4767H293.958V13.8493H297.943C299.351 13.8493 299.351 15.9212 297.943 15.9212H293.958V18.2936H298.782C300.221 18.2936 300.332 20.3656 298.782 20.3656H292.835C292.281 20.3656 291.854 19.9385 291.854 19.385V10.4013C291.854 9.83185 292.281 9.42058 292.835 9.42058H298.513ZM246.823 11.0813C245.052 11.0813 243.122 12.3309 243.122 14.8299C243.122 17.313 245.052 18.5783 246.823 18.5783C248.642 18.5783 250.588 17.313 250.588 14.8299C250.588 12.3309 248.642 11.0813 246.823 11.0813ZM272.399 11.2712H269.758V15.2095H272.399C273.459 15.2095 274.297 14.2763 274.297 13.2957C274.297 12.1886 273.459 11.2712 272.399 11.2712ZM260.932 11.3344H257.879V14.6558H260.932C262.988 14.6558 263.114 11.3344 260.932 11.3344Z" fill="#3DB5E6"/>
<path d="M214.664 17.7239C213.122 23.9189 207.48 28.3264 200.835 28.3264C194.16 28.3264 188.567 23.6581 187.088 17.4375C188.867 17.4375 190.529 17.4456 191.301 17.4456C191.665 17.4456 191.735 17.4519 191.756 17.4504C192.337 17.4218 193.065 17.2302 193.55 16.0522L195.396 11.2236L199.495 21.0938C199.864 21.8806 200.479 21.8248 200.846 21.8248H200.881C201.597 21.8248 201.908 21.5739 202.18 21.0549L206.811 11.2976L208.39 15.695L208.487 15.9079C208.821 16.6406 209.061 17.3642 209.887 17.4588C210.058 17.4783 212.036 17.4437 214.704 17.4437C214.704 17.4437 214.704 17.4608 214.664 17.7239Z" fill="#3DB5E6"/>
<path d="M215.117 14.0751C215.117 14.1489 215.117 14.3342 215.115 14.3342H215.112H210.855L208.371 7.39596C208.15 6.87996 207.818 6.1064 206.849 6.1064C206.256 6.1064 205.72 6.59592 205.417 7.40377L200.914 17.8332L196.58 7.46703C196.156 6.54636 195.862 6.11336 195.014 6.11336C194.438 6.11336 194.015 6.3256 193.555 7.41627L190.982 14.4373L186.708 14.4328C186.705 14.326 186.704 14.2192 186.704 14.1124C186.704 6.30766 193.031 0 200.836 0C208.64 0 215.117 6.27043 215.117 14.0751Z" fill="#D8292F"/>
<path d="M503.621 12.8864V15.7458H505.63V18.5829C505.636 18.8002 505.626 19.0321 505.596 19.2317L505.579 19.3286C505.576 19.3502 505.572 19.3724 505.567 19.3952L505.551 19.4649C505.548 19.4768 505.545 19.4888 505.541 19.5009L505.518 19.5745C505.337 20.0969 504.793 20.7589 503.57 20.7589C502.268 20.7589 501.745 19.9989 501.602 19.4649L501.586 19.3952L501.573 19.3286C501.537 19.1098 501.522 18.8364 501.522 18.5829V9.62205C501.522 9.3403 501.539 9.03488 501.589 8.78607L501.624 8.63487C501.626 8.6244 501.629 8.61376 501.632 8.60296L501.651 8.53637C501.654 8.52499 501.658 8.51347 501.662 8.50184L501.687 8.43065C501.873 7.93556 502.364 7.27616 503.56 7.27616C504.483 7.27616 504.979 7.65218 505.245 8.04082L505.292 8.11375C505.307 8.13805 505.321 8.16231 505.334 8.18644L505.371 8.25836L505.404 8.32899L505.432 8.39777L505.456 8.4642L505.477 8.52772L505.494 8.58781L505.508 8.64394L505.52 8.69558C505.525 8.72126 505.529 8.74852 505.534 8.77686L505.545 8.86463C505.547 8.87963 505.549 8.89478 505.55 8.91001L505.562 9.04765L505.571 9.17965L505.577 9.35963L505.579 9.45186V10.54H510.517L510.518 9.86262L510.521 9.62037L510.52 9.43259L510.516 9.21395L510.512 9.09624L510.503 8.91276L510.49 8.72481L510.479 8.59915C510.145 5.289 507.657 4.01545 504.63 3.79384L504.427 3.78061L504.223 3.77044C504.121 3.7661 504.018 3.76289 503.915 3.76076L503.707 3.75793C503.673 3.75758 503.638 3.75758 503.603 3.75758L503.395 3.759C503.36 3.75947 503.326 3.76007 503.291 3.76079L503.085 3.76655L502.88 3.7753L502.677 3.78708L502.476 3.80197C502.409 3.80745 502.342 3.81347 502.276 3.82002L502.078 3.8413C502.045 3.84512 502.013 3.84908 501.98 3.85318L501.785 3.87942C501.333 3.9446 500.897 4.03744 500.485 4.16157L500.31 4.21669C498.396 4.84436 497.006 6.17885 496.721 8.59915L496.691 8.86782L496.671 9.07583L496.652 9.29391L496.636 9.51088C496.628 9.65267 496.622 9.78625 496.622 9.89672L496.622 18.2455L496.624 18.3492L496.628 18.5067L496.633 18.6171L496.64 18.735L496.648 18.8632L496.66 19.0045L496.682 19.2469L496.7 19.4328C496.977 22.5088 499.309 23.8772 502.161 24.2L502.361 24.2209C502.696 24.2528 503.037 24.2708 503.382 24.2759L503.589 24.2774L503.798 24.2759C504.145 24.2708 504.488 24.2528 504.823 24.2209L505.024 24.2C507.886 23.8772 510.202 22.5088 510.484 19.4328L510.507 19.1616L510.524 18.9321L510.539 18.6749L510.548 18.4534L510.556 18.1398V12.8864H503.621ZM469.574 4.28501H464.616V18.7896C464.623 19.0424 464.616 19.3263 464.572 19.5345L464.557 19.5977L464.539 19.6648C464.533 19.6879 464.525 19.7115 464.517 19.7355L464.491 19.8091C464.304 20.3078 463.828 20.9585 462.688 20.9585C461.619 20.9585 461.131 20.3712 460.926 19.8849L460.896 19.8091C460.892 19.7966 460.887 19.7842 460.883 19.772L460.859 19.6998L460.84 19.6308C460.837 19.6196 460.835 19.6085 460.832 19.5977L460.818 19.5345C460.769 19.3263 460.762 19.0424 460.769 18.7896V4.28501H455.812V18.3394L455.811 18.4524L455.812 18.65L455.819 18.9407L455.833 19.294L455.842 19.4719L455.849 19.5663L455.855 19.6358C456.098 22.236 457.623 23.5895 459.778 24.1558L459.961 24.2018C460.362 24.2975 460.784 24.3672 461.221 24.4137L461.424 24.4336L461.63 24.4502L461.838 24.4637C461.942 24.4696 462.047 24.4744 462.153 24.4781L462.365 24.4839L462.58 24.4868C462.616 24.4871 462.652 24.4871 462.688 24.4871L462.904 24.4857C462.939 24.4852 462.975 24.4846 463.011 24.4839L463.224 24.4781C463.33 24.4744 463.435 24.4696 463.54 24.4637L463.748 24.4502L463.953 24.4336L464.157 24.4137C467.057 24.1057 469.232 22.7854 469.532 19.6358L469.536 19.6044L469.544 19.5219L469.556 19.3574L469.567 19.1582L469.573 19.0143L469.579 18.7935L469.581 18.65L469.58 18.5152L469.577 18.3937C469.576 18.3748 469.575 18.3567 469.574 18.3394V4.28501ZM424.013 4.28501L421.54 19.6111L419.068 4.28501H411.069L410.645 23.8915H415.545L415.678 5.74119L419.049 23.8915H424.021L427.396 5.74119L427.529 23.8915H432.442L432.003 4.28501H424.013ZM394.399 4.28501L390.767 23.8915H396.063L398.8 5.74119L401.471 23.8915H406.731L403.114 4.28501H394.399ZM486.904 20.0705L482.286 4.28501H475.011V23.6871H479.824L479.544 7.3965L484.503 23.6871H491.481V4.28501H486.636L486.904 20.0705ZM442.383 9.38766C442.296 9.00046 442.321 8.58908 442.366 8.37408C442.379 8.31702 442.394 8.25949 442.412 8.20205L442.441 8.11603C442.636 7.57248 443.094 7.06191 444.143 7.06191C445.276 7.06191 445.94 7.76784 445.94 8.82725V10.0261H450.773V8.65957C450.773 5.57568 448.755 4.38938 446.598 3.97359L446.421 3.94113L446.243 3.912L446.065 3.88606L445.887 3.86317L445.709 3.8432L445.532 3.826C445.473 3.82071 445.414 3.81587 445.356 3.81144L445.18 3.79937L445.006 3.78966L444.833 3.78218L444.662 3.77677L444.493 3.7733L444.244 3.77143L444.134 3.77181L443.915 3.77493C443.879 3.77572 443.843 3.77663 443.806 3.77768L443.591 3.78558C443.519 3.78875 443.448 3.79246 443.377 3.79672L443.165 3.81116C440.216 4.03674 437.915 5.24804 437.455 8.08859C437.318 8.95363 437.285 9.72149 437.501 10.7013C437.843 12.3115 439.184 13.4573 440.724 14.4183L440.962 14.5647C441.002 14.5889 441.042 14.613 441.082 14.6369L441.324 14.7794L441.567 14.9195L441.811 15.0576L442.178 15.2611L443.141 15.7888L443.375 15.9185L443.605 16.0478L443.83 16.1769L444.05 16.306C445.099 16.9305 445.94 17.5639 446.243 18.3211C446.41 18.7709 446.374 19.338 446.293 19.6998L446.279 19.7581C446.259 19.8451 446.234 19.9321 446.202 20.0177L446.168 20.1027C445.945 20.623 445.459 21.0665 444.389 21.0665C443.169 21.0665 442.435 20.3651 442.435 19.308L442.433 17.4263H437.23V18.922C437.23 22.4326 439.457 23.9575 442.247 24.4103L442.455 24.4419C442.594 24.4616 442.734 24.4788 442.875 24.4936L443.088 24.5139C443.338 24.5355 443.59 24.5498 443.844 24.5573L444.062 24.5621C444.099 24.5626 444.135 24.563 444.172 24.5633L444.281 24.5637C444.354 24.5637 444.427 24.5632 444.499 24.5621L444.716 24.5574C444.752 24.5563 444.787 24.5551 444.823 24.5538L445.037 24.5443C445.108 24.5405 445.178 24.5363 445.249 24.5314L445.458 24.5153C445.597 24.5034 445.735 24.4892 445.871 24.4728L446.074 24.4464L446.275 24.4165C446.341 24.4059 446.407 24.3948 446.473 24.383L446.668 24.3459C449.029 23.8728 450.786 22.5899 451.139 20.1234C451.188 19.7555 451.218 19.4158 451.234 19.1052L451.242 18.9025C451.244 18.8694 451.245 18.8368 451.245 18.8044L451.249 18.6148V18.434L451.246 18.2621L451.24 18.0991L451.232 17.9451C451.231 17.9202 451.229 17.8957 451.227 17.8715L451.217 17.7312L451.204 17.6001L451.191 17.4782L451.17 17.3128L451.147 17.1686L451.118 17.0097L451.105 16.9447C450.764 15.2373 449.269 14.0314 447.609 13.0387L447.371 12.8983L447.131 12.7606L446.89 12.6255L446.528 12.4271L446.048 12.1697L445.23 11.7346L444.894 11.5524C444.857 11.5323 444.82 11.5122 444.784 11.4921L444.569 11.372L444.359 11.2523C443.329 10.655 442.55 10.0684 442.383 9.38766ZM378.62 9.33957C378.531 8.96902 378.544 8.57921 378.59 8.3527L378.609 8.26789L378.63 8.18397C378.794 7.59523 379.24 6.9884 380.394 6.9884C381.541 6.9884 382.216 7.70113 382.216 8.76909V9.98257H387.107V8.60519C387.107 5.66231 385.276 4.42639 383.23 3.94293L383.052 3.90276C382.903 3.87083 382.753 3.84271 382.602 3.81803L382.422 3.79004L382.242 3.76521L382.062 3.74342L381.882 3.72451C381.822 3.71867 381.763 3.71329 381.703 3.70834L381.525 3.69479L381.348 3.6837L381.172 3.67494L380.999 3.66837L380.827 3.66385L380.573 3.6604H380.489C380.416 3.6604 380.343 3.66091 380.27 3.66195L380.053 3.66662C379.908 3.67078 379.765 3.67706 379.624 3.68553L379.412 3.69987C379.377 3.70253 379.342 3.70534 379.308 3.70828L379.099 3.72762C379.031 3.73464 378.962 3.74221 378.894 3.75037L378.69 3.77656C378.522 3.79983 378.356 3.82675 378.193 3.85744L377.999 3.89609L377.807 3.93842L377.619 3.98446C377.557 4.00043 377.495 4.01703 377.434 4.03427L377.251 4.08791C375.353 4.67132 373.985 5.89492 373.64 8.01809C373.498 8.89698 373.473 9.67013 373.679 10.6608C374.042 12.3728 375.521 13.565 377.175 14.5668L377.418 14.712C377.459 14.736 377.5 14.7599 377.54 14.7837L377.786 14.9254L378.156 15.1339L378.649 15.4057L379.376 15.8039L379.729 16.0004L380.072 16.1962L380.294 16.3268C380.331 16.3485 380.367 16.3703 380.403 16.3921L380.616 16.5231C381.524 17.092 382.236 17.6779 382.51 18.3649C382.69 18.8116 382.648 19.3785 382.563 19.7521L382.548 19.8125C382.527 19.8985 382.502 19.9845 382.47 20.0692L382.436 20.1534C382.207 20.6829 381.717 21.137 380.634 21.137C379.409 21.137 378.676 20.4235 378.676 19.3518L378.669 17.4651H373.408V18.9643C373.408 23.1726 376.581 24.5558 380.095 24.6597L380.315 24.6645L380.536 24.6661L380.754 24.6646C380.863 24.663 380.971 24.6603 381.078 24.6564L381.292 24.647C381.398 24.6414 381.504 24.6347 381.609 24.6267L381.818 24.6091L382.025 24.5881C382.093 24.5805 382.161 24.5724 382.229 24.5637L382.431 24.5359C382.498 24.526 382.564 24.5156 382.63 24.5046L382.827 24.4697C385.273 24.0119 387.095 22.7148 387.462 20.1778C387.512 19.8154 387.544 19.4801 387.562 19.1728L387.571 18.9721L387.577 18.7798C387.579 18.7171 387.58 18.6558 387.58 18.5959L387.579 18.4205L387.576 18.2536L387.57 18.0954L387.562 17.9458L387.552 17.8049L387.54 17.6728L387.521 17.4913L387.501 17.3299L387.473 17.1463L387.441 16.9684C387.102 15.2812 385.652 14.0809 384.02 13.0937L383.78 12.9507C383.74 12.9271 383.7 12.9037 383.659 12.8803L383.417 12.7415L383.173 12.6053L382.929 12.4715L382.686 12.3398L381.611 11.7693L381.267 11.5851L381.044 11.4634L380.826 11.3423L380.615 11.2218C380.58 11.2017 380.546 11.1816 380.511 11.1616L380.31 11.0414C379.422 10.5004 378.77 9.95923 378.62 9.33957Z" fill="#1428A0"/>
<path d="M562.955 21.4119C561.926 21.4141 560.976 20.8627 560.468 19.9684C559.966 19.0797 559.996 17.987 560.546 17.1271L565.668 9.08282C566.202 8.20265 567.168 7.67774 568.197 7.70883C569.225 7.73347 570.16 8.30994 570.644 9.2174C571.122 10.1204 571.062 11.2068 570.49 12.0544L565.371 20.0987C564.843 20.9209 563.932 21.4163 562.955 21.4119Z" fill="#F62B54"/>
<path d="M571.742 21.4116C570.709 21.4116 569.758 20.8591 569.259 19.9713C568.759 19.085 568.789 17.995 569.337 17.1376L574.45 9.11177C574.976 8.21896 575.945 7.68173 576.981 7.70847C578.023 7.73126 578.967 8.31407 579.444 9.22573C579.919 10.1374 579.849 11.2303 579.26 12.0757L574.148 20.1016C573.622 20.9202 572.715 21.4141 571.742 21.4116Z" fill="#FFCC00"/>
<path d="M580.332 21.4798C581.789 21.4798 582.969 20.3238 582.969 18.8979C582.969 17.4719 581.789 16.3159 580.332 16.3159C578.875 16.3159 577.695 17.4719 577.695 18.8979C577.695 20.3238 578.875 21.4798 580.332 21.4798Z" fill="#00CA72"/>
<path d="M694.903 16.4645C695.7 16.4645 696.176 17.031 696.176 17.9589V21.1389H697.258V17.8862C697.258 16.3082 696.515 15.3933 695.117 15.3933C694.57 15.3933 693.702 15.543 693.184 16.5491C692.939 15.9445 692.381 15.5234 691.733 15.453C691.532 15.4163 691.328 15.4042 691.125 15.4172C690.68 15.453 689.888 15.7297 689.591 16.357V15.5137H688.508V21.1389H689.591V18.1033C689.591 16.9225 690.364 16.4645 691.138 16.4645C691.863 16.4645 692.339 17.0191 692.339 17.947V21.1389H693.416V18.1033C693.416 17.1634 693.98 16.4536 694.903 16.4645ZM684.533 20.199C685.028 20.2099 685.505 20.0123 685.852 19.6542C686.199 19.296 686.383 18.8087 686.365 18.3084C686.365 17.1753 685.531 16.4645 684.533 16.4645C683.533 16.4645 682.701 17.1753 682.701 18.3084C682.681 18.8076 682.866 19.2939 683.211 19.6509C683.556 20.0091 684.031 20.2077 684.524 20.199H684.533ZM684.533 21.2539C682.95 21.2539 681.63 20.0851 681.63 18.3019C681.63 16.5187 682.95 15.3868 684.533 15.3868C686.115 15.3868 687.447 16.5187 687.447 18.3019C687.447 20.0851 686.108 21.2594 684.525 21.2594L684.533 21.2539ZM676.057 18.3019L676.046 18.3084C676.046 16.5253 677.401 15.3933 678.995 15.3868C679.804 15.3711 680.582 15.6992 681.136 16.2897L680.315 16.9887C679.963 16.643 679.488 16.4524 678.995 16.459C677.996 16.459 677.128 17.1699 677.128 18.3019C677.128 19.067 677.583 19.7562 678.28 20.0492C678.978 20.3423 679.781 20.1795 680.315 19.639L681.148 20.3379C680.592 20.9345 679.81 21.2674 678.995 21.2539C677.413 21.2539 676.057 20.0851 676.057 18.3019ZM672.591 20.059C672.589 19.8604 672.666 19.669 672.804 19.5269C672.943 19.3849 673.133 19.3038 673.331 19.3015C673.53 19.3038 673.72 19.3849 673.858 19.5269C673.997 19.669 674.074 19.8604 674.072 20.059C674.052 20.4544 673.727 20.7658 673.331 20.7699C672.936 20.7658 672.611 20.4544 672.591 20.059Z" fill="#333333"/>
<path d="M675.552 8.36327H671.698L668.997 15.3277L666.31 8.36327H662.456L667.141 19.3683L664.227 26.6442H668.053L675.552 8.36327ZM652.114 14.4844C652.114 16.2426 653.651 17.3995 655.16 17.3995C656.644 17.3995 658.102 16.3229 658.102 14.4833C658.102 12.6437 656.644 11.566 655.16 11.566C653.651 11.566 652.114 12.724 652.114 14.4833V14.4844ZM658.102 20.6294V19.2369C657.32 20.4199 655.497 20.8671 654.561 20.8671C651.464 20.8671 648.365 18.4251 648.365 14.4833C648.365 10.5426 651.463 8.10063 654.561 8.10063C655.342 8.10063 657.165 8.3611 658.102 9.72858V8.36761H661.694V20.6316L658.102 20.6305V20.6294ZM647.343 20.6294H643.751V19.1056C643.15 20.2343 641.695 20.892 640.184 20.892C637.06 20.892 634.3 18.3969 634.3 14.5332C634.3 10.5968 637.06 8.09845 640.184 8.09845C641.693 8.09845 643.153 8.72793 643.751 9.85774V1.68213H647.343V20.6294ZM643.672 14.4562C643.672 12.6177 642.345 11.54 640.862 11.54C639.325 11.54 638.048 12.6958 638.048 14.4562C638.048 16.273 639.325 17.4234 640.86 17.4234C642.372 17.4256 643.672 16.2165 643.672 14.4562ZM625.418 14.1393C625.418 12.2747 626.381 11.6441 627.657 11.6441C628.88 11.6441 629.765 12.4581 629.765 14.0861V20.6272H633.384V13.2992C633.384 9.80673 631.665 8.09845 628.931 8.09845C627.499 8.09845 626.068 8.91243 625.417 10.1475V8.36327H621.8V20.6272H625.418V14.1393ZM614.453 20.8378C611.017 20.8378 608.15 18.3166 608.15 14.4551C608.15 10.5914 611.013 8.0952 614.453 8.0952C617.892 8.0952 620.78 10.5914 620.78 14.4551C620.78 18.3188 617.889 20.8389 614.453 20.8389V20.8378ZM614.453 17.2671C615.961 17.2671 617.213 16.1623 617.213 14.4562C617.213 12.8011 615.962 11.6713 614.453 11.6713C613.718 11.6598 613.011 11.9505 612.497 12.4755C611.98 13.0031 611.699 13.7178 611.719 14.4562C611.72 16.1644 612.969 17.2671 614.453 17.2671ZM601.664 11.6452C602.73 11.6452 603.668 12.4863 603.668 14.0872V20.6294H607.26V13.6639C607.26 9.96084 605.46 8.09628 602.574 8.09628C601.717 8.09628 600.102 8.35676 598.93 10.2756C598.252 8.85708 596.951 8.12125 595.028 8.12125C593.664 8.11431 592.422 8.9054 591.852 10.1443V8.36436H588.232V20.6283H591.849V14.1393C591.849 12.2747 592.865 11.6441 593.958 11.6441C595 11.6441 595.935 12.4581 595.962 14.0079V20.6283H599.581V14.1393C599.581 12.3561 600.519 11.6463 601.664 11.6463V11.6452Z" fill="#333333"/>
<path d="M771.56 15.1637L771.578 15.1652L773.474 15.3633C773.607 15.3777 773.729 15.4426 773.816 15.5442L773.83 15.5614L773.812 15.5704C773.9 15.6822 773.939 15.8253 773.92 15.9666C773.506 19.2594 771.945 22.3011 769.512 24.5578C766.987 26.8994 763.671 28.2005 760.227 28.2005C758.555 28.2032 756.896 27.8953 755.337 27.2926L755.252 27.2594C755.124 27.2122 755.021 27.1152 754.967 26.9911L754.959 26.9713C754.906 26.8477 754.903 26.7087 754.95 26.5834L755.698 24.7579C755.8 24.4998 756.087 24.3698 756.347 24.4613L756.364 24.4677C760.188 25.9445 764.52 25.1127 767.526 22.3245C769.439 20.5665 770.673 18.1915 771.011 15.6154C771.047 15.3494 771.278 15.1559 771.542 15.1629L771.56 15.1637ZM816.331 7.41604C817.947 7.41604 819.211 7.9092 820.018 8.85632L820.046 8.88842V8.08693C820.056 7.86322 820.23 7.68242 820.451 7.66058L820.469 7.65916H822.626C822.847 7.6745 823.024 7.84916 823.043 8.06901L823.044 8.08693V20.0596C823.114 21.7479 822.595 23.4079 821.576 24.7559C820.415 26.1698 818.65 26.8857 816.331 26.8857C813.107 26.8857 810.563 24.846 810.144 21.9327C810.123 21.7224 810.251 21.5268 810.45 21.4609L810.468 21.4554L812.576 20.9601C812.586 20.9577 812.598 20.9556 812.609 20.9539C812.84 20.92 813.055 21.0801 813.089 21.3114C813.281 22.9455 814.686 24.1647 816.331 24.1255C818.823 24.1255 819.995 22.859 820.018 20.2122L820.018 20.1316V19.0825C819.084 20.1301 817.734 20.7091 816.331 20.6629C812.747 20.6629 810.149 17.8803 810.149 14.053C810.116 12.331 810.722 10.6578 811.851 9.35666C812.997 8.09744 814.628 7.39079 816.331 7.41604ZM751.42 21.9777L751.447 21.9775L751.474 21.9777C752.334 21.9876 753.027 22.6832 753.036 23.5404L753.036 23.5672C753.036 23.5761 753.036 23.5851 753.036 23.594C753.021 24.4717 752.298 25.1711 751.42 25.1562C750.542 25.1412 749.843 24.4177 749.858 23.54C749.872 22.6802 750.567 21.9914 751.42 21.9777ZM853.665 7.24945L853.776 7.25027C857.629 7.30348 860.016 9.98542 860.016 14.2781C860.016 14.5052 860.004 14.7322 859.98 14.958C859.96 15.1657 859.79 15.3259 859.583 15.3357L859.566 15.3362H850.407C850.463 17.2598 852.054 18.7817 853.978 18.7538C855.469 18.8475 856.829 17.8991 857.256 16.4665C857.334 16.2608 857.556 16.1502 857.765 16.2092L857.782 16.2143L859.61 16.8582C859.711 16.8907 859.794 16.9623 859.841 17.0564L859.849 17.0743C859.899 17.1735 859.908 17.2887 859.872 17.394C859.023 19.908 856.63 21.5715 853.978 21.4915C852.239 21.5088 850.565 20.8294 849.331 19.6048C847.984 18.1872 847.265 16.2865 847.336 14.3322C847.336 9.94138 850.492 7.30259 853.574 7.25025L853.665 7.24945ZM801.841 7.24946H801.846C805.767 7.24946 808.203 9.94206 808.203 14.2781C808.203 14.5052 808.191 14.7322 808.167 14.958C808.149 15.1668 807.978 15.3281 807.77 15.3359L807.753 15.3362H798.595C798.651 17.2651 800.249 18.7892 802.179 18.7538C803.671 18.8492 805.031 17.9001 805.457 16.4665C805.533 16.2591 805.756 16.1477 805.967 16.209L805.984 16.2143L807.812 16.8582C807.919 16.8927 808.005 16.9714 808.05 17.0743C808.093 17.1766 808.093 17.2917 808.05 17.394C807.202 19.9064 804.811 21.5695 802.161 21.4915C800.419 21.5112 798.742 20.8316 797.505 19.6048C796.159 18.1861 795.441 16.2862 795.51 14.3322C795.51 9.89703 798.73 7.24946 801.841 7.24946ZM787.973 7.2449C789.733 7.2449 791.156 7.67268 792.21 8.51463C792.922 9.08242 793.45 9.84861 793.727 10.7165L793.728 10.72C793.764 10.8696 793.676 11.0203 793.53 11.0637L793.516 11.0677L791.332 11.7881C791.235 11.8265 791.127 11.8265 791.03 11.7881C790.947 11.7495 790.885 11.6774 790.859 11.5901L790.847 11.5471C790.648 10.836 789.998 9.69438 787.973 9.69438C786.532 9.69438 785.667 10.5229 785.667 11.3244L785.668 11.3561C785.679 11.8773 785.962 12.5315 787.205 12.7802L787.243 12.7877L789.648 13.238C792.304 13.7729 793.836 15.2169 793.866 17.2293L793.867 17.2904L793.858 17.2545L793.857 17.3155C793.819 19.3328 791.867 21.4554 788.274 21.4554C784.064 21.4554 782.412 19.0735 782.106 17.6687C782.086 17.5217 782.175 17.3829 782.316 17.3397L782.331 17.3354L784.582 16.633C784.622 16.6265 784.664 16.6265 784.704 16.633C784.761 16.632 784.818 16.6442 784.869 16.6684L784.888 16.6781C784.971 16.7177 785.032 16.7919 785.055 16.8806C785.339 18.2315 786.559 19.0375 788.315 19.0375C789.949 19.0375 790.692 18.182 790.692 17.4075C790.692 16.6416 790.045 16.0738 788.929 15.8393L788.891 15.8316L786.365 15.3408C784.01 14.895 782.543 13.4316 782.543 11.527C782.543 9.20807 785.032 7.2449 787.973 7.2449ZM878.783 3.49419H880.751C880.983 3.50812 881.165 3.69642 881.174 3.92706L881.174 3.94443V7.64117H883.542C883.773 7.65736 883.952 7.84482 883.961 8.07373L883.962 8.09141V10.0546L883.961 10.0717C883.955 10.2918 883.78 10.4706 883.56 10.4818L883.542 10.4824H881.174V17.0518C881.174 18.1414 881.606 18.5917 882.718 18.5917C882.943 18.5878 883.169 18.5707 883.392 18.5406L883.475 18.5286C883.598 18.5079 883.723 18.5425 883.817 18.6232C883.902 18.7021 883.953 18.8105 883.961 18.9258L883.962 18.9475V20.798C883.963 20.9866 883.84 21.1537 883.66 21.2078C883.141 21.353 882.606 21.4258 882.067 21.4245L881.994 21.4239C879.644 21.4239 878.178 19.9278 878.149 17.5081L878.149 17.4345V10.5094H876.1C875.876 10.4962 875.697 10.321 875.678 10.0997L875.676 10.0816V8.10941C875.676 7.87674 875.853 7.6831 876.082 7.66053L876.1 7.65916L876.65 7.65909L876.709 7.65805C877.352 7.63958 878.34 7.37899 878.36 5.94378L878.36 5.89856V3.94443C878.359 3.71176 878.537 3.51813 878.766 3.49556L878.783 3.49419ZM840.54 7.24746L840.591 7.24946H840.587C842.905 7.24946 845.245 8.86458 845.291 12.392L845.292 12.4995V20.8386C845.282 21.0623 845.108 21.243 844.887 21.2649L844.869 21.2663H842.712C842.489 21.2531 842.31 21.0779 842.29 20.8566L842.289 20.8386V12.7697L842.288 12.7076C842.275 11.6795 841.926 10.0276 839.808 10.0276C838.243 10.0276 837.128 11.2456 837.106 13.0175L837.106 13.0714V20.8386C837.095 21.0623 836.922 21.243 836.701 21.2649L836.683 21.2663H834.499C834.275 21.2531 834.097 21.0779 834.077 20.8566L834.076 20.8386V12.7697L834.076 12.7076C834.063 11.6795 833.713 10.0276 831.595 10.0276C829.968 10.0276 828.866 11.2367 828.844 13.0435L828.844 13.0984V20.8386C828.833 21.0623 828.659 21.243 828.439 21.2649L828.421 21.2663H826.264C826.042 21.251 825.865 21.0763 825.846 20.8565L825.845 20.8386V8.0599C825.856 7.83777 826.026 7.65759 826.246 7.63372L826.264 7.63213H828.34C828.563 7.64529 828.742 7.82055 828.762 8.04186L828.763 8.0599V8.82988C829.696 7.80613 831.024 7.23092 832.41 7.24946C834.014 7.20243 835.512 8.05087 836.296 9.45119C837.229 8.02481 838.839 7.19034 840.54 7.24746ZM872.835 8.83884C873.661 9.92742 874.088 11.2663 874.044 12.631L874.042 12.6886V20.8386C874.031 21.0607 873.86 21.2409 873.641 21.2648L873.623 21.2663H871.44C871.216 21.2531 871.037 21.0779 871.017 20.8566L871.016 20.8386V13.1254C871.016 11.1082 870.066 10.0816 868.265 10.0816C867.469 10.0559 866.709 10.4103 866.216 11.0362C865.739 11.7232 865.493 12.5431 865.512 13.378L865.514 13.4271V20.8386C865.503 21.0623 865.329 21.243 865.109 21.2649L865.091 21.2663H862.911C862.688 21.2531 862.508 21.0779 862.489 20.8566L862.488 20.8386V8.05087C862.499 7.82716 862.672 7.64642 862.893 7.62452L862.911 7.62309H865.041C865.263 7.63843 865.439 7.81317 865.459 8.03295L865.46 8.05087V8.95144C866.373 7.84459 867.744 7.21741 869.179 7.24946C870.577 7.18968 871.925 7.77578 872.835 8.83884ZM747.336 15.71H762.839C763.124 15.7124 763.354 15.9405 763.361 16.2232L763.361 16.2413V18.182C763.363 18.4669 763.139 18.7009 762.857 18.7128L762.839 18.7133H747.336C747.051 18.7109 746.821 18.4827 746.814 18.2001V18.182V16.2413V16.2232C746.821 15.9467 747.041 15.7224 747.317 15.7105L747.336 15.71ZM816.704 10.1086C814.579 10.1086 813.228 11.6216 813.228 14.053C813.228 16.4845 814.561 17.9928 816.704 17.9928C818.749 17.9928 820.127 16.4079 820.127 14.053C820.127 11.6935 818.749 10.1086 816.704 10.1086ZM798.69 12.7394L798.685 12.7877H805.092C804.936 11.076 803.73 10.0086 801.923 9.9874L801.868 9.98708C800.276 9.96119 798.92 11.1256 798.697 12.6918L798.69 12.7394ZM850.521 12.7394L850.515 12.7877H856.923C856.767 11.076 855.56 10.0086 853.753 9.9874L853.699 9.98708C852.107 9.96119 850.751 11.1256 850.527 12.6918L850.521 12.7394ZM764.779 0.900594C764.914 0.949017 765.022 1.04972 765.081 1.17978C765.135 1.31107 765.135 1.45827 765.081 1.58948L764.406 3.39062C764.312 3.65768 764.02 3.79862 763.753 3.70579C760.214 2.47105 756.288 3.1726 753.397 5.55636C751.594 7.0648 750.315 9.10404 749.74 11.3828C749.681 11.613 749.474 11.7739 749.236 11.7746H749.119L747.264 11.3289C747.125 11.2963 747.007 11.2084 746.935 11.0857H746.926C746.851 10.963 746.83 10.8148 746.868 10.676C747.604 7.75886 749.253 5.15299 751.573 3.23748C755.262 0.200125 760.272 -0.686313 764.779 0.900594ZM757.913 8.68129H773.415C773.693 8.68356 773.92 8.9009 773.937 9.17612L773.938 9.19456V11.1353C773.94 11.4202 773.716 11.6542 773.434 11.6661L773.415 11.6666H757.913C757.63 11.6617 757.402 11.4345 757.395 11.1536L757.395 11.1353V9.21255C757.392 8.92948 757.614 8.69635 757.894 8.68192L757.913 8.68129ZM768.675 2.76017L768.701 2.75996L768.728 2.7602C769.589 2.77006 770.281 3.46572 770.291 4.32282L770.291 4.34965C770.291 4.35861 770.291 4.36757 770.29 4.37645C770.276 5.25416 769.552 5.95355 768.674 5.93865C767.796 5.92374 767.097 5.2001 767.112 4.32247C767.127 3.4626 767.821 2.77391 768.675 2.76017Z" fill="#4FB58B"/>
</svg>
