<svg width="189" height="40" viewBox="0 0 189 40" fill="none" xmlns="http://www.w3.org/2000/svg">
<path d="M33.9881 21.5478L34.013 21.5497L36.6166 21.8209C36.7994 21.8406 36.9672 21.9294 37.0859 22.0684L37.1052 22.092L37.0805 22.1043C37.2021 22.2573 37.2558 22.4532 37.2289 22.6466C36.66 27.1526 34.5165 31.3151 31.1746 34.4034C27.707 37.6079 23.1522 39.3884 18.4227 39.3884C16.1256 39.3921 13.8481 38.9707 11.7059 38.1459L11.5892 38.1006C11.4139 38.036 11.273 37.9031 11.1984 37.7333L11.1872 37.7062C11.1142 37.5372 11.1101 37.3469 11.175 37.1755L12.2027 34.6772C12.342 34.3241 12.7366 34.1462 13.093 34.2714L13.1167 34.2802C18.3696 36.3011 24.3191 35.1629 28.4473 31.3472C31.075 28.9414 32.7694 25.6913 33.2338 22.1659C33.283 21.8019 33.6 21.5371 33.9632 21.5467L33.9881 21.5478ZM95.4778 10.9452C97.6978 10.9452 99.4339 11.6201 100.543 12.9162L100.58 12.9601V11.8633C100.595 11.5572 100.833 11.3097 101.136 11.2799L101.161 11.2779H104.123C104.428 11.2989 104.67 11.5379 104.697 11.8388L104.699 11.8633V28.2478C104.794 30.5581 104.082 32.8298 102.682 34.6746C101.087 36.6094 98.6627 37.5891 95.4778 37.5891C91.05 37.5891 87.5558 34.7978 86.9807 30.811C86.9522 30.5232 87.1281 30.2556 87.4016 30.1654L87.426 30.1579L90.3202 29.4801C90.3353 29.4767 90.3504 29.4738 90.3657 29.4716C90.6834 29.4252 90.9786 29.6442 91.0252 29.9607C91.2895 32.1971 93.2186 33.8655 95.4778 33.8119C98.9002 33.8119 100.51 32.0786 100.542 28.4566L100.543 28.3463V26.9106C99.2598 28.3443 97.4045 29.1365 95.4778 29.0734C90.5552 29.0734 86.987 25.2654 86.987 20.0278C86.9419 17.6712 87.7746 15.3815 89.3245 13.6009C90.8987 11.8777 93.1395 10.9107 95.4778 10.9452ZM6.32717 30.8726L6.36387 30.8723L6.40071 30.8726C7.58232 30.8861 8.5337 31.8381 8.54655 33.0111L8.54664 33.0479C8.54664 33.06 8.5465 33.0723 8.54629 33.0844C8.52571 34.2856 7.53194 35.2428 6.32646 35.2224C5.12097 35.2019 4.1604 34.2117 4.18077 33.0106C4.20093 31.8339 5.15496 30.8914 6.32717 30.8726ZM146.754 10.7172L146.906 10.7184C152.198 10.7912 155.477 14.4614 155.477 20.3358C155.477 20.6467 155.46 20.9573 155.427 21.2663C155.4 21.5505 155.167 21.7697 154.883 21.7832L154.858 21.7838H142.28C142.357 24.4162 144.541 26.499 147.184 26.4607C149.232 26.589 151.099 25.2911 151.686 23.3306C151.793 23.0491 152.098 22.8977 152.386 22.9785L152.409 22.9855L154.92 23.8666C155.059 23.9111 155.172 24.0091 155.236 24.1379L155.248 24.1624C155.317 24.2981 155.328 24.4558 155.28 24.5999C154.113 28.0403 150.827 30.3167 147.184 30.2072C144.796 30.2309 142.497 29.3012 140.802 27.6254C138.951 25.6854 137.964 23.0843 138.062 20.4098C138.062 14.4011 142.396 10.79 146.629 10.7183L146.754 10.7172ZM75.577 10.7172H75.5832C80.9697 10.7172 84.3154 14.402 84.3154 20.3358C84.315 20.6467 84.2984 20.9573 84.2659 21.2663C84.2409 21.5521 84.006 21.7728 83.7208 21.7834L83.6969 21.7838H71.1183C71.1958 24.4235 73.391 26.5092 76.0409 26.4608C78.0907 26.5913 79.9587 25.2926 80.543 23.3306C80.6477 23.0469 80.9546 22.8944 81.2432 22.9782L81.2665 22.9855L83.7773 23.8666C83.9241 23.9139 84.0434 24.0216 84.105 24.1624C84.1638 24.3024 84.1638 24.4599 84.105 24.5999C82.9398 28.0381 79.6567 30.314 76.0162 30.2072C73.6238 30.2342 71.3203 29.3042 69.6216 27.6254C67.7737 25.6839 66.7865 23.0839 66.8821 20.4098C66.8821 14.3404 71.3038 10.7172 75.577 10.7172ZM56.5298 10.711C58.9477 10.711 60.902 11.2964 62.3491 12.4486C63.3276 13.2256 64.0528 14.2741 64.4331 15.4619L64.4343 15.4666C64.484 15.6714 64.3632 15.8776 64.1628 15.937L64.1425 15.9424L61.1432 16.9284C61.01 16.9809 60.8619 16.9809 60.7288 16.9284C60.6152 16.8755 60.5298 16.7768 60.4938 16.6573L60.4778 16.5985C60.2046 15.6254 59.3115 14.0631 56.5298 14.0631C54.5508 14.0631 53.3635 15.1969 53.3635 16.2937L53.3639 16.3372C53.3788 17.0503 53.768 17.9456 55.4747 18.2859L55.5279 18.2963L58.8303 18.9124C62.4792 19.6445 64.5825 21.6206 64.6242 24.3745L64.6248 24.4582L64.6125 24.409L64.6117 24.4925C64.5586 27.2531 61.8788 30.1579 56.9441 30.1579C51.1619 30.1579 48.8923 26.8983 48.4717 24.9758C48.4443 24.7747 48.5674 24.5847 48.76 24.5256L48.7809 24.5198L51.8731 23.5585C51.9283 23.5496 51.9848 23.5496 52.04 23.5585C52.1187 23.5571 52.1964 23.5738 52.2673 23.6069L52.2935 23.6202C52.4071 23.6744 52.4909 23.7759 52.5223 23.8974C52.912 25.7461 54.5879 26.849 56.9997 26.849C59.2446 26.849 60.265 25.6782 60.265 24.6184C60.265 23.5702 59.3757 22.7932 57.8427 22.4722L57.7913 22.4617L54.322 21.7901C51.0876 21.1801 49.0717 19.1774 49.0717 16.5709C49.0717 13.3976 52.4915 10.711 56.5298 10.711ZM181.253 5.57821H183.956C184.274 5.59729 184.524 5.85497 184.536 6.17059L184.537 6.19437V11.2533H187.789C188.105 11.2754 188.352 11.532 188.364 11.8452L188.365 11.8694V14.556L188.365 14.5794C188.356 14.8806 188.115 15.1253 187.813 15.1407L187.789 15.1414H184.537V24.1316C184.537 25.6227 185.13 26.239 186.657 26.239C186.966 26.2336 187.276 26.2102 187.582 26.169L187.697 26.1526C187.865 26.1242 188.037 26.1717 188.166 26.2821C188.283 26.39 188.353 26.5384 188.364 26.6961L188.365 26.7258V29.2582C188.367 29.5163 188.198 29.7449 187.95 29.819C187.238 30.0177 186.502 30.1174 185.763 30.1156L185.662 30.1147C182.435 30.1147 180.422 28.0674 180.382 24.7561L180.381 24.6554V15.1784H177.567C177.26 15.1604 177.014 14.9205 176.987 14.6177L176.986 14.593V11.8941C176.985 11.5757 177.228 11.3107 177.543 11.2798L177.567 11.2779L178.323 11.2778L178.404 11.2764C179.287 11.2511 180.643 10.8945 180.671 8.93045L180.672 8.86857V6.19437C180.671 5.87597 180.914 5.61098 181.229 5.58009L181.253 5.57821ZM128.727 10.7145L128.798 10.7172H128.792C131.976 10.7172 135.19 12.9275 135.254 17.7548L135.255 17.9019V29.3137C135.24 29.6199 135.001 29.8672 134.698 29.8972L134.673 29.8991H131.711C131.404 29.881 131.159 29.6413 131.131 29.3384L131.13 29.3137V18.2717L131.129 18.1866C131.111 16.7797 130.631 14.519 127.723 14.519C125.573 14.519 124.042 16.1859 124.012 18.6108L124.011 18.6845V29.3137C123.997 29.6199 123.759 29.8672 123.455 29.8972L123.43 29.8991H120.431C120.124 29.881 119.878 29.6413 119.852 29.3384L119.85 29.3137V18.2717L119.85 18.1866C119.831 16.7797 119.352 14.519 116.442 14.519C114.207 14.519 112.694 16.1738 112.664 18.6463L112.664 18.7215V29.3137C112.648 29.6199 112.411 29.8672 112.107 29.8972L112.083 29.8991H109.12C108.815 29.8781 108.573 29.639 108.547 29.3383L108.545 29.3137V11.8263C108.56 11.5223 108.794 11.2758 109.095 11.2431L109.12 11.2409H111.971C112.278 11.2589 112.524 11.4988 112.551 11.8016L112.552 11.8263V12.88C113.835 11.479 115.658 10.6919 117.561 10.7172C119.765 10.6529 121.822 11.814 122.899 13.7303C124.181 11.7783 126.391 10.6363 128.727 10.7145ZM173.083 12.8923C174.218 14.382 174.803 16.2142 174.743 18.0818L174.74 18.1607V29.3137C174.726 29.6177 174.491 29.8643 174.19 29.897L174.165 29.8991H171.167C170.859 29.881 170.613 29.6413 170.586 29.3384L170.584 29.3137V18.7584C170.584 15.9979 169.28 14.593 166.806 14.593C165.714 14.5578 164.669 15.0428 163.992 15.8993C163.338 16.8394 163 17.9615 163.026 19.104L163.028 19.1713V29.3137C163.012 29.6199 162.775 29.8672 162.471 29.8972L162.447 29.8991H159.453C159.147 29.881 158.9 29.6413 158.874 29.3384L158.872 29.3137V11.814C158.887 11.5078 159.125 11.2605 159.429 11.2305L159.453 11.2286H162.379C162.683 11.2496 162.926 11.4887 162.952 11.7894L162.954 11.814V13.0464C164.208 11.5317 166.091 10.6734 168.062 10.7172C169.982 10.6354 171.834 11.4375 173.083 12.8923ZM0.717377 22.2954H22.0096C22.4009 22.2987 22.717 22.6108 22.7268 22.9977L22.727 23.0225V25.6783C22.7303 26.0681 22.4223 26.3884 22.0344 26.4047L22.0095 26.4053H0.717377C0.326032 26.402 0.0100446 26.0898 0 25.703V25.6782V23.0224V22.9976C0.00983504 22.6193 0.312538 22.3123 0.69197 22.296L0.717377 22.2954ZM95.9911 14.63C93.0722 14.63 91.2169 16.7004 91.2169 20.0278C91.2169 23.3552 93.0474 25.4194 95.9911 25.4194C98.7987 25.4194 100.691 23.2505 100.691 20.0278C100.691 16.7989 98.7987 14.63 95.9911 14.63ZM71.2499 18.2302L71.242 18.2963H80.042C79.8278 15.9538 78.171 14.4931 75.6896 14.4641L75.6142 14.4636C73.4277 14.4282 71.5657 16.0216 71.2587 18.165L71.2499 18.2302ZM142.436 18.2302L142.428 18.2963H151.229C151.014 15.9538 149.357 14.4931 146.876 14.4641L146.8 14.4636C144.614 14.4282 142.752 16.0216 142.445 18.165L142.436 18.2302ZM24.675 2.02892C24.8593 2.09519 25.0088 2.23301 25.0893 2.41098C25.1632 2.59065 25.1632 2.79209 25.0893 2.97165L24.1617 5.43649C24.0331 5.80195 23.6321 5.99483 23.265 5.8678C18.4053 4.17807 13.0129 5.13813 9.04132 8.40027C6.56618 10.4645 4.8087 13.2552 4.01976 16.3737C3.93808 16.6887 3.6535 16.9089 3.32712 16.9099H3.16632L0.618414 16.2998C0.428443 16.2554 0.265307 16.135 0.166981 15.967H0.15457C0.0514705 15.7992 0.0224074 15.5964 0.0742756 15.4064C1.08608 11.4144 3.35003 7.84827 6.53669 5.22691C11.6039 1.07034 18.484 -0.142733 24.675 2.02892ZM15.2441 12.6767H36.5362C36.9179 12.6798 37.2298 12.9772 37.2525 13.3539L37.2536 13.3791V16.0349C37.2569 16.4248 36.9491 16.745 36.5611 16.7614L36.5362 16.762H15.2441C14.8553 16.7554 14.5429 16.4444 14.5331 16.0601L14.5328 16.0349V13.4037C14.5294 13.0163 14.8335 12.6973 15.2188 12.6775L15.2441 12.6767ZM30.025 4.57373L30.0617 4.57344L30.0985 4.57376C31.2801 4.58726 32.2315 5.53925 32.2444 6.71218L32.2445 6.74891C32.2445 6.76117 32.2443 6.77343 32.2441 6.78558C32.2236 7.98672 31.2298 8.94382 30.0243 8.92342C28.8188 8.90302 27.8582 7.91273 27.8787 6.71171C27.8987 5.53498 28.8529 4.59253 30.025 4.57373Z" fill="#4FB58B"/>
</svg>
